<svg id="svg" version="1.1" xmlns="http://www.w3.org/2000/svg" style="display: block;" viewBox="0 0 512 512"><path d="M0 0 C168.96 0 337.92 0 512 0 C512 168.96 512 337.92 512 512 C343.04 512 174.08 512 0 512 C0 343.04 0 174.08 0 0 Z " transform="translate(0,0)" style="fill: #FDFDFD;"/><path d="M0 0 C168.96 0 337.92 0 512 0 C512 168.96 512 337.92 512 512 C343.04 512 174.08 512 0 512 C0 343.04 0 174.08 0 0 Z M115 61 C113.74937934 61.8538635 112.49815081 62.70683791 111.24609375 63.55859375 C107.48778584 66.11176719 107.48778584 66.11176719 104 69 C104 69.99 104 70.98 104 72 C102.02157972 73.86834276 100.0588204 75.55934745 97.9375 77.25 C96.73384477 78.23865885 95.5320064 79.22953396 94.33203125 80.22265625 C93.75275879 80.70105957 93.17348633 81.17946289 92.57666016 81.67236328 C89.50991485 84.25473569 86.71803297 87.05779936 84 90 C83.49984375 90.54140625 82.9996875 91.0828125 82.484375 91.640625 C80.61513904 93.72763602 78.80669606 95.85848504 77 98 C76.54351074 98.53206055 76.08702148 99.06412109 75.61669922 99.61230469 C60.83179513 116.90785287 47.66534255 136.87973612 39 158 C38.52820313 159.12277344 38.05640625 160.24554688 37.5703125 161.40234375 C34.13992704 169.79288116 31.17175332 178.21847074 28.61767578 186.91552734 C27.99136429 189.02914297 27.33807812 191.13323992 26.68359375 193.23828125 C23.38034181 204.15161862 21.6201392 215.04174357 20.30957031 226.35791016 C20.05732422 228.51075499 19.77372633 230.65990792 19.48095703 232.80761719 C18.97241641 236.88028508 18.79000833 240.9372928 18.7265625 245.0390625 C18.71412506 245.79011765 18.70168762 246.54117279 18.68887329 247.31498718 C18.42505486 267.13584132 19.81805348 285.56026631 24 305 C24.279646 306.34288086 24.279646 306.34288086 24.56494141 307.71289062 C27.02769636 319.42434853 30.0527459 331.07481386 35 342 C35.95935706 344.38835753 36.90148427 346.78301177 37.83984375 349.1796875 C44.18238083 364.59824565 52.25841427 379.4611477 62 393 C62.43393066 393.60763184 62.86786133 394.21526367 63.31494141 394.84130859 C69.49255433 403.44758169 76.01099439 411.49217054 83.31640625 419.1640625 C85.54116992 421.5151228 87.66221013 423.90373852 89.75 426.375 C93.18296381 430.32537223 97.00109936 433.63637622 101 437 C101.93585938 437.82371094 102.87171875 438.64742188 103.8359375 439.49609375 C150.74787007 480.56068856 214.52270023 501.26191019 276.58789062 497.20562744 C284.49369213 496.53167387 292.31702168 495.19325817 300.125 493.8125 C300.95549866 493.66669495 301.78599731 493.52088989 302.6416626 493.3706665 C317.96459667 490.62299301 332.4295342 486.16056297 347 480.6875 C348.01892334 480.30650146 349.03784668 479.92550293 350.08764648 479.53295898 C356.91266087 476.92857095 363.48499739 474.03032379 369.91601562 470.56323242 C372.77046512 469.03412013 375.34613492 467.90686953 378.484375 467.0625 C382.6468147 465.80451822 385.6497859 463.90390157 389.1875 461.4375 C389.83750977 460.99349854 390.48751953 460.54949707 391.15722656 460.09204102 C447.1061052 421.58097367 486.13245157 366.79288313 499.19140625 299.52734375 C506.70923184 258.63558719 503.32457627 216.33053333 490 177 C489.77231934 176.31856934 489.54463867 175.63713867 489.31005859 174.93505859 C478.92502947 144.30713005 461.97742516 116.62790373 440 93 C438.82877852 91.64977087 437.66192767 90.29573509 436.5 88.9375 C429.34676322 80.76705983 421.52372095 73.71257175 413 67 C411.97777344 66.18402344 410.95554687 65.36804688 409.90234375 64.52734375 C374.2179961 36.31117733 330.25077393 18.59996047 285 14 C284.01257813 13.88914062 283.02515625 13.77828125 282.0078125 13.6640625 C221.87365187 7.88493537 163.96157098 26.76257556 115 61 Z " transform="translate(0,0)" style="fill: #000000;"/><path d="M0 0 C7.70318645 6.94998599 14.79740666 14.26143679 21.26171875 22.390625 C22.69613415 24.19330145 24.15680634 25.97543653 25.64453125 27.734375 C64.78375211 74.07082562 82.32806308 137.78640305 77.6875 197.6875 C73.16056726 250.34790768 52.50952723 299.54918785 17.4375 339.125 C16.96054687 339.66511719 16.48359375 340.20523437 15.9921875 340.76171875 C-0.28433362 359.08368504 -18.92294309 373.95838611 -39.5625 387.125 C-40.34109375 387.64835937 -41.1196875 388.17171875 -41.921875 388.7109375 C-44.94441731 390.32951785 -47.96962739 391.27564227 -51.22851562 392.31201172 C-54.16853286 393.33609722 -56.86360072 394.6716591 -59.63452148 396.08129883 C-78.20608958 405.51384843 -98.50033803 412.42908801 -119.07958984 415.70410156 C-121.71186848 416.15032067 -124.31391714 416.68932817 -126.92578125 417.2421875 C-185.36675851 429.07928998 -248.05720507 412.35688999 -297.44384766 380.53466797 C-302.727357 377.01922859 -307.67586139 373.17501566 -312.5625 369.125 C-313.0992334 368.6830127 -313.6359668 368.24102539 -314.18896484 367.78564453 C-318.02653503 364.61821552 -321.81169194 361.39460339 -325.5625 358.125 C-326.06587891 357.68623535 -326.56925781 357.2474707 -327.08789062 356.79541016 C-333.04607737 351.5693073 -338.4945058 346.20873143 -343.5625 340.125 C-344.35914063 339.21621094 -345.15578125 338.30742187 -345.9765625 337.37109375 C-357.36811067 324.32765594 -367.22731222 310.51789581 -375.34375 295.2109375 C-377.21894329 291.67674073 -379.29046132 288.31015476 -381.47436523 284.95898438 C-382.93737685 282.49316808 -383.88155443 279.95024792 -384.8203125 277.25 C-385.64587815 274.8862752 -386.5638985 272.57211224 -387.5 270.25 C-388.1875 268.54166667 -388.875 266.83333333 -389.5625 265.125 C-389.86430176 264.40965088 -390.16610352 263.69430176 -390.47705078 262.95727539 C-393.01255037 256.84157322 -394.93135772 250.72499742 -396.5625 244.3125 C-396.94486816 242.8267749 -396.94486816 242.8267749 -397.33496094 241.31103516 C-399.63407223 232.18852104 -401.54430847 222.99900747 -403.12036133 213.72436523 C-403.43059812 211.90046067 -403.76027301 210.07980664 -404.10424805 208.26196289 C-405.7788976 198.76084425 -405.9184879 189.42785251 -405.875 179.8125 C-405.87317719 178.97695587 -405.87135437 178.14141174 -405.86947632 177.2805481 C-405.79115028 155.8980497 -403.08580652 135.78690818 -397.5625 115.125 C-397.38041992 114.42600586 -397.19833984 113.72701172 -397.01074219 113.00683594 C-395.32974231 106.57724883 -393.47180981 100.44151366 -390.61328125 94.4375 C-389.36594195 91.69242616 -388.34984813 88.89352367 -387.3125 86.0625 C-380.38176237 67.92461216 -370.42108598 50.47270439 -358.5625 35.125 C-357.77746094 34.07441406 -356.99242187 33.02382812 -356.18359375 31.94140625 C-345.55386903 17.87967186 -333.54223851 4.90104844 -319.5625 -5.875 C-319.8925 -6.535 -320.2225 -7.195 -320.5625 -7.875 C-244.46432168 -64.60199145 -149.81065835 -81.52144118 0 0 Z M-304.5625 -11.875 C-304.87010254 -11.24295654 -305.17770508 -10.61091309 -305.49462891 -9.9597168 C-306.60268958 -7.7965412 -307.69915757 -6.55956087 -309.46875 -4.9140625 C-310.04286621 -4.36766113 -310.61698242 -3.82125977 -311.20849609 -3.25830078 C-311.82031738 -2.67806152 -312.43213867 -2.09782227 -313.0625 -1.5 C-334.40266285 19.3806464 -347.23667015 48.56620358 -347.85498047 78.54589844 C-348.0126345 100.33291638 -343.40486326 122.59250375 -331.92675781 141.35668945 C-329.43379309 145.58101221 -329.43379309 145.58101221 -330.0625 148.23828125 C-331.94452227 150.60551238 -333.95525326 152.76690249 -336.0625 154.9375 C-356.99161715 177.33203797 -369.88100785 208.72720063 -368.90625 239.41796875 C-367.89277289 257.00541621 -361.09124593 273.55660614 -348.5625 286.125 C-341.99246055 291.55791724 -335.06914097 296.48060604 -326.9375 299.1875 C-325.99648438 299.50847656 -325.05546875 299.82945312 -324.0859375 300.16015625 C-315.43349082 302.52950695 -307.08175532 303.46786188 -298.125 303.4375 C-296.70477539 303.46166992 -296.70477539 303.46166992 -295.25585938 303.48632812 C-288.00161244 303.49125294 -281.51440464 302.1469967 -274.5625 300.125 C-274.62308594 301.06480713 -274.68367188 302.00461426 -274.74609375 302.97290039 C-275.92046544 321.3737537 -276.90378874 339.67644767 -276.5625 358.125 C-273.2716012 357.02803373 -272.59453283 356.27698144 -270.4375 353.6875 C-267.69418105 350.45223567 -264.91018648 347.26911801 -262.0625 344.125 C-259.37266569 341.14437279 -256.69939636 338.15254767 -254.0625 335.125 C-251.42560364 332.09745233 -248.75233431 329.10562721 -246.0625 326.125 C-242.18613949 321.82815292 -238.36206413 317.48971669 -234.5625 313.125 C-233.25036505 311.62468066 -231.93787249 310.12467399 -230.625 308.625 C-230.03847656 307.9546875 -229.45195312 307.284375 -228.84765625 306.59375 C-228.42355469 306.1090625 -227.99945313 305.624375 -227.5625 305.125 C-228.2225 306.115 -228.8825 307.105 -229.5625 308.125 C-227.94497555 324.84904744 -215.30871037 342.98576237 -204.5625 355.125 C-203.99015625 355.82882812 -203.4178125 356.53265625 -202.828125 357.2578125 C-189.65078549 373.25886762 -170.30386424 384.4385662 -150.875 391 C-150.03283936 391.28617187 -149.19067871 391.57234375 -148.32299805 391.8671875 C-137.66405828 395.30082912 -127.16840405 396.49662337 -116 396.4375 C-114.86957275 396.43186035 -113.73914551 396.4262207 -112.57446289 396.42041016 C-89.91243265 396.09641482 -71.17097674 390.20668668 -51.51391602 379.17895508 C-49.54702222 378.11664049 -47.54732564 377.17097985 -45.5234375 376.22265625 C-41.24940914 374.10152968 -37.80859298 371.34074959 -34.25 368.1875 C-33.60264893 367.61684814 -32.95529785 367.04619629 -32.28833008 366.45825195 C-8.7646407 345.28315284 5.6707593 315.4721146 7.64428711 283.80712891 C8.51845518 253.15902351 1.71071137 226.94663183 -16.5625 202.125 C-16.8925 201.795 -17.2225 201.465 -17.5625 201.125 C-16.87285156 200.57972656 -16.18320312 200.03445313 -15.47265625 199.47265625 C5.25219598 182.84160199 20.62770218 162.26089141 29.4375 137.125 C29.97750168 135.8118141 30.51895325 134.49922252 31.0625 133.1875 C38.50401973 112.4362907 37.90708007 88.89814165 28.75 68.875 C19.81918975 52.28284628 6.04842622 42.51226889 -11.359375 36.09375 C-19.09008289 33.83721905 -26.80810791 33.85153221 -34.8125 33.8125 C-35.92584717 33.80686035 -37.03919434 33.8012207 -38.1862793 33.79541016 C-45.09502781 33.85633478 -52.24947836 33.96848918 -58.5625 37.125 C-58.50191406 35.97201416 -58.44132812 34.81902832 -58.37890625 33.63110352 C-58.15083643 29.26820709 -57.92862936 24.90502691 -57.70800781 20.54174805 C-57.61255017 18.66927268 -57.51559589 16.79687288 -57.41699219 14.92456055 C-56.78911729 2.97892034 -56.42045391 -8.91254872 -56.5625 -20.875 C-60.26526569 -19.64074477 -61.0660057 -18.25254451 -63.4375 -15.1875 C-67.17505268 -10.49723781 -71.08253527 -6.05895212 -75.1875 -1.6875 C-79.16295462 2.5499913 -83.09314505 6.80406407 -86.890625 11.203125 C-88.92008073 13.53605074 -90.990147 15.83011245 -93.0625 18.125 C-96.93886051 22.42184708 -100.76293587 26.76028331 -104.5625 31.125 C-105.87463495 32.62531934 -107.18712751 34.12532601 -108.5 35.625 C-109.08652344 36.2953125 -109.67304688 36.965625 -110.27734375 37.65625 C-110.70144531 38.1409375 -111.12554687 38.625625 -111.5625 39.125 C-114.27077848 36.41672152 -115.55717626 33.1639325 -117.1875 29.75 C-132.47243075 -1.3404654 -157.46683081 -22.10204007 -189.9375 -33.625 C-227.69383484 -45.4923957 -274.24184936 -38.61703308 -304.5625 -11.875 Z " transform="translate(424.5625,76.875)" style="fill: #FDB117;"/><path d="M0 0 C3.16658663 -0.05880804 6.33302993 -0.09386406 9.5 -0.125 C10.386875 -0.14175781 11.27375 -0.15851563 12.1875 -0.17578125 C26.81006239 -0.28330009 39.46887342 5.7594927 49.93896484 15.74438477 C65.8344674 31.63180213 71.34965834 51.89102574 71.5625 73.75 C71.37037518 102.90269729 60.88153876 126.81105847 41 148 C36.67627812 144.44493978 32.75145838 140.72855178 28.875 136.6875 C23.18595421 130.88732851 16.927601 126.25389379 10 122 C9.43861328 121.65340332 8.87722656 121.30680664 8.29882812 120.94970703 C-2.44825562 114.45693141 -13.96100434 110.42878248 -26 107 C-26.6811084 106.8050293 -27.3622168 106.61005859 -28.06396484 106.40917969 C-41.38408596 102.80056879 -55.33194413 103.7074988 -69 104 C-67.42275327 99.91565654 -65.4956438 96.32699978 -63.25 92.5625 C-59.1883238 85.60478479 -55.95385252 78.50538626 -53 71 C-52.69320313 70.2471875 -52.38640625 69.494375 -52.0703125 68.71875 C-49.23866941 61.12877882 -48.05733858 52.99946054 -47 45 C-46.90428711 44.30938477 -46.80857422 43.61876953 -46.70996094 42.90722656 C-46.00352575 37.16432401 -45.43771398 32.14541473 -48.95703125 27.3125 C-51.52079672 24.98108809 -54.16714113 22.9922959 -57 21 C-58.45307463 19.74700449 -59.89216003 18.47748372 -61.3125 17.1875 C-64.14916566 14.71332914 -67.03310722 12.31788498 -70 10 C-69.34 8.68 -68.68 7.36 -68 6 C-61.8713197 10.36079175 -56.36917992 15.23611605 -50.8671875 20.34375 C-46.27543404 24.59769054 -41.54790063 28.68182765 -36.78515625 32.7421875 C-35.58580988 33.76547544 -34.38659499 34.78891751 -33.1875 35.8125 C-32.28052368 36.5861792 -32.28052368 36.5861792 -31.35522461 37.37548828 C-27.5659745 40.62051869 -23.85646476 43.9321055 -20.1875 47.3125 C-13.49026649 53.6755483 -13.49026649 53.6755483 -6 59 C-5.01 58.67 -4.02 58.34 -3 58 C-1.658803 38.67075478 -0.5855846 19.36951993 0 0 Z " transform="translate(365,128)" style="fill: #FEB217;"/><path d="M0 0 C4.62 0 9.24 0 14 0 C14.33 7.26 14.66 14.52 15 22 C17.33771484 22.25523438 17.33771484 22.25523438 19.72265625 22.515625 C31.50936554 23.86076529 42.63790397 25.56770016 54 29 C54 37.58 54 46.16 54 55 C49.26782368 54.21130395 46.74257486 53.57170445 42.625 51.625 C37.64831716 49.47611943 32.86620456 48.15966333 27.5625 47.1875 C26.88848145 47.06391113 26.21446289 46.94032227 25.52001953 46.81298828 C21.91327538 46.19909356 18.68966665 46 15 46 C15 54.58 15 63.16 15 72 C19.36560375 73.24731536 23.4822196 74.3145473 27.89892578 75.19042969 C39.69532689 77.63030814 52.27856317 82.01761658 59.76953125 92.03125 C65.2214299 100.75428785 65.08555636 110.68845864 63.6015625 120.68359375 C61.05800284 129.94941822 53.6917667 137.37080675 45.81640625 142.46875 C35.34063295 148.16431606 26.036703 149.39510627 14 151 C14 162.88 14 174.76 14 187 C9.38 187 4.76 187 0 187 C-0.02505615 185.97527588 -0.0501123 184.95055176 -0.07592773 183.89477539 C-0.16984484 180.10590324 -0.27010317 176.31722119 -0.37231445 172.52856445 C-0.41572297 170.88635697 -0.45739358 169.24410261 -0.49731445 167.60180664 C-0.5548744 165.24611255 -0.61860892 162.89065572 -0.68359375 160.53515625 C-0.70030624 159.79660904 -0.71701874 159.05806183 -0.73423767 158.2971344 C-0.53548013 154.85699373 -0.53548013 154.85699373 -2 152 C-3.42051817 151.82034678 -4.84863849 151.70006503 -6.27734375 151.60546875 C-7.17517578 151.5391626 -8.07300781 151.47285645 -8.99804688 151.40454102 C-9.96806641 151.33291748 -10.93808594 151.26129395 -11.9375 151.1875 C-19.40284767 150.57249871 -26.68482663 149.69281815 -34 148.0625 C-34.72179443 147.90483154 -35.44358887 147.74716309 -36.18725586 147.5847168 C-40.63977351 146.53337667 -43.79048813 145.10475593 -48 143 C-48 134.42 -48 125.84 -48 117 C-43.30222039 117.78296327 -40.82580163 118.3878159 -36.75 120.3125 C-31.5747909 122.5332054 -26.476133 124.02404313 -21 125.25 C-20.2894043 125.41282471 -19.57880859 125.57564941 -18.84667969 125.7434082 C-12.49310935 127.09616408 -6.61545385 127.44871218 0 128 C0 118.43 0 108.86 0 99 C-3.4959375 98.4121875 -3.4959375 98.4121875 -7.0625 97.8125 C-21.06338231 95.25021872 -35.05788476 91.63218651 -44.4375 80.125 C-50.47723858 71.12527622 -51.08539485 61.55599699 -50 51 C-47.56391997 41.74781724 -40.44646055 35.50576771 -32.62109375 30.46875 C-23.17422292 25.36401584 -12.62826991 22.90070084 -2 22 C-0.38219843 20.38219843 -0.77727853 18.54364482 -0.68359375 16.30859375 C-0.62075195 14.89223633 -0.62075195 14.89223633 -0.55664062 13.44726562 C-0.51732422 12.45404297 -0.47800781 11.46082031 -0.4375 10.4375 C-0.37272461 8.94186523 -0.37272461 8.94186523 -0.30664062 7.41601562 C-0.20019833 4.94418889 -0.09956241 2.4721134 0 0 Z " transform="translate(192,63)" style="fill: #050A05;"/><path d="M0 0 C0 3 0 3 -2 5 C-1.85941291 9.2363577 1.29914546 11.8605591 4.0625 14.75 C4.81503052 15.54833252 4.81503052 15.54833252 5.58276367 16.36279297 C6.59143882 17.429056 7.60351285 18.49211512 8.61914062 19.55175781 C9.76754598 20.75620275 10.89444156 21.98111225 12.015625 23.2109375 C29.21945494 41.53675635 58.00337451 54.94708096 83.09082031 56.14794922 C86.58245293 56.24823761 90.06948657 56.29563136 93.5625 56.3125 C95.25910767 56.32095947 95.25910767 56.32095947 96.98999023 56.32958984 C103.88465914 56.26873481 109.13237568 55.91174955 115 52 C113.59836068 55.01318597 111.92637935 57.53095903 109.9375 60.1875 C102.91574765 70.123942 96.83065693 81.11591965 94 93 C93.67 93.969375 93.34 94.93875 93 95.9375 C91.48586261 100.57454577 90.25767407 105.28791447 89 110 C85.32043709 108.43767979 82.83484207 106.16415918 79.9375 103.4375 C75.31592495 99.16054307 70.56152929 95.13995386 65.66015625 91.18359375 C61.6679675 87.90659887 57.82669157 84.46764396 54 81 C50.92323564 81.67050202 50.92323564 81.67050202 49.81640625 83.90625 C48.61635525 88.45381168 48.83987073 92.81989681 48.9375 97.5 C49.04842612 107.34777419 48.86539101 117.16058546 48.5 127 C48.42833618 128.93262695 48.42833618 128.93262695 48.35522461 130.90429688 C48.24014356 133.93634296 48.12199778 136.9682255 48 140 C28.5998328 140.80802952 15.30746235 139.41796465 0.07421875 126.34765625 C-13.79876534 113.27444508 -22.82459163 92.95362109 -23.3984375 73.94140625 C-23.40629158 71.48177097 -23.39831315 69.02203734 -23.375 66.5625 C-23.38660156 65.34240234 -23.39820312 64.12230469 -23.41015625 62.86523438 C-23.38356241 54.52806511 -22.24265627 47.0205833 -20 39 C-19.77038574 38.17169678 -19.54077148 37.34339355 -19.30419922 36.48999023 C-15.44888791 23.2715774 -9.91852154 9.91852154 0 0 Z " transform="translate(103,223)" style="fill: #FEB217;"/><path d="M0 0 C0 0.66 0 1.32 0 2 C-0.66 2.33 -1.32 2.66 -2 3 C-2.11730469 3.61617187 -2.23460938 4.23234375 -2.35546875 4.8671875 C-3.25363961 7.83931652 -4.716331 8.47703308 -7.3125 10.125 C-24.57971883 21.81737389 -32.6780503 33.30950053 -39 53 C-39.55266283 54.39975739 -40.1135101 55.79635208 -40.6875 57.1875 C-48.20710887 77.44452269 -46.13681291 103.80571838 -37.31445312 123.22753906 C-29.22762563 140.0553916 -17.60267005 150.77947872 -0.55908203 158.03979492 C4.55883704 159.42055879 9.59511782 159.46894437 14.875 159.625 C16.47988281 159.68300781 16.47988281 159.68300781 18.1171875 159.7421875 C20.74462408 159.83602452 23.37206171 159.92171557 26 160 C25.99111755 159.33680756 25.98223511 158.67361511 25.9730835 157.99032593 C25.88450044 151.07973866 25.82421985 144.16931304 25.78027344 137.25830078 C25.76017437 134.68010912 25.73289059 132.10196296 25.69824219 129.52392578 C25.64965153 125.81531539 25.62701342 122.10730844 25.609375 118.3984375 C25.58872986 117.24822113 25.56808472 116.09800476 25.54681396 114.91293335 C25.54505954 108.63751485 25.76149759 104.773815 30 100 C38.91231107 103.99304468 46.21024538 112.05017075 53.27392578 118.67041016 C57.63825807 122.73493294 62.18966813 126.46993734 67 130 C67 128.35 67 126.7 67 125 C67.33 125 67.66 125 68 125 C68.05414063 126.04414063 68.10828125 127.08828125 68.1640625 128.1640625 C69.14830779 132.68055259 70.95481463 134.54514074 74.375 137.375 C74.90577148 137.8397876 75.43654297 138.3045752 75.98339844 138.78344727 C78.67684498 141.12087726 81.43932281 143.36195403 84.2421875 145.56640625 C85.23476562 146.34886719 86.22734375 147.13132812 87.25 147.9375 C88.16265625 148.62714844 89.0753125 149.31679688 90.015625 150.02734375 C90.99789062 151.00380859 90.99789062 151.00380859 92 152 C92 156.64361685 91.36624828 159.42645888 88.30078125 162.95703125 C87.31658203 163.87548828 87.31658203 163.87548828 86.3125 164.8125 C83.54979511 167.46071442 80.96661152 170.1365884 78.5 173.0625 C76.15949351 175.79131779 73.74153561 178.17496691 71 180.5 C67.61378657 183.37925633 64.72169023 186.44734886 61.84765625 189.83203125 C59.77579243 192.26307654 57.64335344 194.63179392 55.5 197 C52.81016569 199.98062721 50.13689636 202.97245233 47.5 206 C44.86310364 209.02754767 42.18983431 212.01937279 39.5 215 C32.65691015 222.36150819 32.65691015 222.36150819 26.4296875 230.2265625 C25.95789063 230.81179688 25.48609375 231.39703125 25 232 C24.34 232 23.68 232 23 232 C22.64112248 212.6006763 23.7527244 193.34769931 25 174 C24.26281738 174.21148682 23.52563477 174.42297363 22.76611328 174.64086914 C15.68836118 176.55801824 9.19911558 177.51779571 1.875 177.4375 C0.88653076 177.42992676 -0.10193848 177.42235352 -1.12036133 177.41455078 C-20.25325386 176.99242239 -37.04921252 171.5946863 -51 158 C-64.64179976 142.83049081 -69.95585594 124.09640833 -69.34765625 104.0078125 C-68.57798326 89.95507342 -64.92213335 76.72249217 -59 64 C-58.70609375 63.3507959 -58.4121875 62.7015918 -58.109375 62.03271484 C-49.78069586 43.77402683 -22.75228473 0 0 0 Z " transform="translate(125,203)" style="fill: #FCE3B9;"/><path d="M0 0 C0.66 0 1.32 0 2 0 C2.15302866 12.88735109 1.67768127 25.69451526 1 38.5625 C0.90325303 40.46026647 0.80689676 42.35805291 0.7109375 44.25585938 C0.47844331 48.83748124 0.24072808 53.41880369 0 58 C0.70125 57.690625 1.4025 57.38125 2.125 57.0625 C18.38073517 51.0549457 40.0598552 54.03351736 55.625 60.5078125 C73.08059385 68.59607258 84.3049638 81.26759487 91.19140625 99.08203125 C97.90690702 119.93050229 95.38307644 145.7970819 85.421875 165.2890625 C84.95265625 166.18367187 84.4834375 167.07828125 84 168 C83.43767713 169.2138277 82.88079828 170.43018591 82.328125 171.6484375 C73.76697265 190.16806403 60.43673981 205.75232904 45.1328125 219.11328125 C42.87478697 221.05663404 42.87478697 221.05663404 40.5 223.625 C35.39050374 228.47902145 29.6466843 232.59057694 23 235 C24.54402511 230.98918921 27.10387171 229.05393336 30.4375 226.4375 C33.44530847 224.06249278 36.31905923 221.73502315 39 219 C40.08012597 218.1417811 41.16363574 217.28780847 42.25 216.4375 C52.90814535 207.27641071 60.71630906 191.27179246 65 178 C65.556875 176.34871094 65.556875 176.34871094 66.125 174.6640625 C72.99383676 151.94203264 71.14153031 125.23027247 60.375 104.0625 C52.61306245 90.02836501 40.34153038 79.14148586 25 74 C19.59283503 72.82804347 14.13505481 72.67723848 8.625 72.4375 C7.69816406 72.39431641 6.77132812 72.35113281 5.81640625 72.30664062 C3.54439706 72.20123814 1.27229075 72.09911394 -1 72 C-0.98952637 72.65556885 -0.97905273 73.3111377 -0.96826172 73.98657227 C-0.78629547 87.33575436 -0.89452116 100.65512443 -1.63677979 113.98532104 C-1.71221891 115.36935455 -1.78103452 116.75376508 -1.84320068 118.13845825 C-1.9331287 120.08419746 -2.05185711 122.02854107 -2.171875 123.97265625 C-2.2347168 125.08906494 -2.29755859 126.20547363 -2.36230469 127.35571289 C-3 130 -3 130 -5.05175781 131.37670898 C-6.0161377 131.68523804 -6.0161377 131.68523804 -7 132 C-19.26603233 121.71422054 -19.26603233 121.71422054 -25.125 116.375 C-28.41600322 113.38029289 -31.77853698 110.53324295 -35.25 107.75 C-40.3159838 103.65714303 -45.0496885 99.28310699 -49.78344727 94.81762695 C-54.28026 90.60035086 -58.93246639 86.69892806 -63.79296875 82.90234375 C-65.90213063 81.0843582 -67.43354147 79.29100938 -69 77 C-68.16855469 76.10796875 -67.33710938 75.2159375 -66.48046875 74.296875 C-65.38271261 73.11467608 -64.2850619 71.93237926 -63.1875 70.75 C-62.64029297 70.16347656 -62.09308594 69.57695313 -61.52929688 68.97265625 C-58.84459674 66.07643429 -56.36612679 63.16442489 -54 60 C-52.55593465 58.81849198 -51.11118551 57.63778878 -49.66015625 56.46484375 C-47.16562733 54.26378882 -45.07416493 51.76574299 -42.91796875 49.23828125 C-40.81829218 46.78794587 -38.66493624 44.39282427 -36.5 42 C-33.81016569 39.01937279 -31.13689636 36.02754767 -28.5 33 C-25.86310364 29.97245233 -23.18983431 26.98062721 -20.5 24 C-14.07535237 16.86994343 -7.86691503 9.66101456 -1.91796875 2.125 C-1.28503906 1.42375 -0.65210938 0.7225 0 0 Z " transform="translate(366,56)" style="fill: #FDE4B9;"/><path d="M0 0 C1.22644557 0.00138269 1.22644557 0.00138269 2.47766781 0.00279331 C3.88068645 0.00073132 3.88068645 0.00073132 5.31204891 -0.00137234 C6.34638561 0.00222294 7.38072231 0.00581821 8.44640255 0.00952244 C9.52919491 0.00937641 10.61198727 0.00923038 11.72759151 0.00907993 C15.32585778 0.0097796 18.92407301 0.0175745 22.52233028 0.02539158 C25.00954822 0.02725557 27.49676652 0.02867956 29.98398495 0.0296793 C35.87363594 0.03311433 41.76326794 0.04100506 47.65291113 0.05102879 C55.01367777 0.06328536 62.37444668 0.06866992 69.73522091 0.0742197 C82.87129802 0.08495968 96.00735986 0.10184693 109.14342403 0.12304783 C107.55792781 4.27777762 105.58326697 7.68538456 103.08092403 11.37304783 C102.36807247 12.43007908 101.65522091 13.48711033 100.92076778 14.57617283 C99.14342403 17.12304783 99.14342403 17.12304783 98.14342403 18.12304783 C96.07257683 18.28147433 93.99664374 18.37429205 91.92076778 18.43945408 C90.66070919 18.48134861 89.4006506 18.52324314 88.10240841 18.5664072 C86.76191667 18.60622379 85.42142183 18.64593597 84.08092403 18.68554783 C82.73650881 18.72872825 81.39210744 18.77234238 80.04772091 18.8164072 C76.74640063 18.92290141 73.44500168 19.02491243 70.14342403 19.12304783 C70.6500256 19.83267673 70.6500256 19.83267673 71.16686153 20.55664158 C71.61287716 21.21793064 72.05889278 21.8792197 72.51842403 22.56054783 C73.1797131 23.51767673 73.1797131 23.51767673 73.85436153 24.49414158 C75.14342403 27.12304783 75.14342403 27.12304783 77.14342403 36.12304783 C87.70342403 36.12304783 98.26342403 36.12304783 109.14342403 36.12304783 C108.48342403 37.77304783 107.82342403 39.42304783 107.14342403 41.12304783 C106.75670528 42.15043064 106.36998653 43.17781345 105.97154903 44.23632908 C102.64311778 50.98381718 102.64311778 50.98381718 99.14342403 53.12304783 C91.96800469 54.67310463 84.39004449 53.85219695 77.14342403 53.12304783 C76.95779903 54.67572361 76.95779903 54.67572361 76.76842403 56.25976658 C74.75306937 68.71717762 67.92107476 77.7066931 58.20592403 85.43554783 C46.95251088 93.28419551 33.83465014 97.49211575 20.14342403 98.12304783 C25.92473482 105.53795545 31.75605161 112.90495694 37.70592403 120.18554783 C42.43310663 125.97297489 47.02182161 131.8412385 51.55358028 137.78320408 C55.02584373 142.29673981 58.64468788 146.69129577 62.24791622 151.10034275 C66.30606265 156.07258846 70.29162535 161.09625748 74.23619747 166.1589365 C77.91075213 170.86381014 81.70893711 175.45279711 85.56139278 180.01367283 C87.14342403 182.12304783 87.14342403 182.12304783 87.14342403 184.12304783 C62.55720576 186.31889223 62.55720576 186.31889223 55.89977169 183.00683689 C52.43428606 180.02949053 50.41138157 176.20222908 48.32311153 172.19336033 C46.21312795 168.49040901 43.39129964 165.36364596 40.64342403 162.12304783 C39.53585723 160.7716607 38.43165633 159.41750759 37.33092403 158.06054783 C36.79467403 157.40054783 36.25842403 156.74054783 35.70592403 156.06054783 C32.87077862 152.54496752 30.0954455 148.9829495 27.3162756 145.42309666 C23.72962401 140.84080414 20.07111958 136.31997806 16.39342403 131.81054783 C11.07107639 125.28011665 5.80870067 118.72405386 0.79576778 111.95117283 C0.38745724 111.40042088 -0.02085331 110.84966892 -0.4415369 110.28222752 C-1.61140381 108.7009993 -2.7751672 107.11526081 -3.93860722 105.52929783 C-5.63015706 103.06097496 -5.63015706 103.06097496 -7.85657597 102.12304783 C-7.85657597 96.51304783 -7.85657597 90.90304783 -7.85657597 85.12304783 C-6.04673222 85.08566502 -4.23688847 85.0482822 -2.37220097 85.00976658 C0.04969302 84.94405628 2.47156713 84.87761074 4.89342403 84.81054783 C6.0806506 84.78798923 7.26787716 84.76543064 8.49108028 84.74218845 C22.67506832 84.31589373 35.80878057 81.4576913 46.14342403 71.12304783 C50.34920901 65.14148697 51.49081628 60.55978272 53.14342403 53.12304783 C31.36342403 53.12304783 9.58342403 53.12304783 -12.85657597 53.12304783 C-12.19657597 51.47304783 -11.53657597 49.82304783 -10.85657597 48.12304783 C-10.52786503 47.10436619 -10.19915409 46.08568455 -9.86048222 45.03613377 C-8.12177669 41.20179332 -6.50314588 38.28341068 -2.85657597 36.12304783 C5.86481863 34.00368509 15.25987939 35.00545288 24.14342403 35.37304783 C26.66022472 35.43327231 29.17716282 35.48801966 31.69420528 35.53711033 C37.84695183 35.66903472 43.99455293 35.86949601 50.14342403 36.12304783 C49.52983028 35.01316502 48.91623653 33.9032822 48.28404903 32.75976658 C47.93890255 32.1354575 47.59375607 31.51114841 47.2381506 30.86792088 C43.86252181 25.48754199 37.1120095 22.33896331 31.18956661 20.52441502 C22.40490426 18.56673013 13.47519871 18.66667901 4.51842403 18.49804783 C2.82960351 18.45979081 1.14080089 18.42073483 -0.54798222 18.38086033 C-4.65069843 18.28570894 -8.75350553 18.20137744 -12.85657597 18.12304783 C-11.27107974 13.96831804 -9.2964189 10.5607111 -6.79407597 6.87304783 C-6.0812244 5.81601658 -5.36837284 4.75898533 -4.63391972 3.66992283 C-2.17337564 0.14404428 -2.17337564 0.14404428 0 0 Z " transform="translate(265.85657596588135,266.8769521713257)" style="fill: #060B06;"/><path d="M0 0 C1.32488413 3.97465238 0.19936974 6.8509628 -0.875 10.75 C-6.59765262 31.9040814 -5.41581417 53.40941574 5.09375 72.84765625 C12.40265142 84.93430265 23.04848596 94.54309438 36.625 99.0625 C37.56601563 99.38347656 38.50703125 99.70445312 39.4765625 100.03515625 C48.14161939 102.40796008 56.46709991 103.33461929 65.4375 103.25 C66.43724854 103.24613281 67.43699707 103.24226563 68.46704102 103.23828125 C75.51483913 103.15573689 82.11450147 102.54486491 89 101 C89.1439108 114.07789407 88.70966143 127.06770602 88 140.125 C87.90321795 141.97002969 87.8068618 143.81508177 87.7109375 145.66015625 C87.47884178 150.10704295 87.24107421 154.55359138 87 159 C87.99 158.67 88.98 158.34 90 158 C90 160 90 160 88.125 162.125 C86 164 86 164 84 164 C84.12034417 158.63288224 84.24466553 153.26587479 84.37231445 147.89892578 C84.41501362 146.08189246 84.45671761 144.26483541 84.49731445 142.44775391 C84.77001054 130.28079532 85.24349613 118.14676031 86 106 C85.2874707 106.21293701 84.57494141 106.42587402 83.84082031 106.64526367 C76.01279448 108.81541573 68.84841276 109.43075953 60.75 109.3125 C59.07164063 109.31733398 59.07164063 109.31733398 57.359375 109.32226562 C51.20576541 109.28235424 45.88600837 108.79223475 40 107 C39.00355469 106.72800781 38.00710937 106.45601563 36.98046875 106.17578125 C20.10075468 100.95841508 7.56118583 89.92086546 -0.75 74.4375 C-10.54178021 54.32977197 -10.52061462 31.12635373 -4 10 C-2.81650387 6.58545372 -1.54350356 3.26762987 0 0 Z " transform="translate(61,276)" style="fill: #16180A;"/><path d="M0 0 C0 3 0 3 -0.58569336 4.93408203 C-1.09946358 7.49596983 -0.63794567 8.66366005 0.37109375 11.0546875 C0.69392334 11.82748047 1.01675293 12.60027344 1.34936523 13.39648438 C1.88799194 14.62334961 1.88799194 14.62334961 2.4375 15.875 C2.80367432 16.72126953 3.16984863 17.56753906 3.54711914 18.43945312 C8.88794822 30.54121612 15.27538519 40.97981269 24 51 C24.50015625 51.63292969 25.0003125 52.26585937 25.515625 52.91796875 C38.06467201 68.67639847 57.87511028 79.52175936 76.6875 85.875 C77.52966064 86.16117187 78.37182129 86.44734375 79.23950195 86.7421875 C89.90064626 90.17653928 100.39257849 91.36577063 111.5625 91.3125 C112.68350098 91.31193604 113.80450195 91.31137207 114.95947266 91.31079102 C122.86163311 91.22466546 130.45944749 90.49776532 138.21313477 88.97973633 C141.85606918 88.26749992 144.4479608 87.92832307 148 89 C128.008079 96.71618003 100.44632826 97.23306081 80 91 C79.34741211 90.80664062 78.69482422 90.61328125 78.02246094 90.4140625 C46.61190312 80.91614301 20.63794816 60.27490081 4.82421875 31.56640625 C0.92110784 24.08112989 -2.89454314 16.43705004 -4 8 C-4.66 8 -5.32 8 -6 8 C-4.55746343 4.63408134 -2.66735273 2.48952921 0 0 Z " transform="translate(197,381)" style="fill: #1C190A;"/><path d="M0 0 C3.16658663 -0.05880804 6.33302993 -0.09386406 9.5 -0.125 C10.386875 -0.14175781 11.27375 -0.15851563 12.1875 -0.17578125 C26.81006239 -0.28330009 39.46887342 5.7594927 49.93896484 15.74438477 C65.8344674 31.63180213 71.34965834 51.89102574 71.5625 73.75 C71.43521065 93.06467248 67.46777963 111.44416603 57 128 C56.34 128.33 55.68 128.66 55 129 C56.0729331 125.61572344 57.25670786 122.31453122 58.62109375 119.0390625 C68.63362385 94.91037164 71.35202051 67.50364286 61.6875 42.75 C54.00523327 25.56178304 42.84886849 13.72508725 25.640625 5.9453125 C19.96277396 3.91270902 14.09194342 3.74596063 8.125 3.4375 C7.34125 3.39431641 6.5575 3.35113281 5.75 3.30664062 C3.83349351 3.20146649 1.91676667 3.10032075 0 3 C0 2.01 0 1.02 0 0 Z " transform="translate(365,128)" style="fill: #1E1E0C;"/><path d="M0 0 C0 3 0 3 -2 5 C-1.85941291 9.2363577 1.29914546 11.8605591 4.0625 14.75 C4.56418701 15.28222168 5.06587402 15.81444336 5.58276367 16.36279297 C6.59143882 17.429056 7.60351285 18.49211512 8.61914062 19.55175781 C9.76754598 20.75620275 10.89444156 21.98111225 12.015625 23.2109375 C29.21945494 41.53675635 58.00337451 54.94708096 83.09082031 56.14794922 C86.58245293 56.24823761 90.06948657 56.29563136 93.5625 56.3125 C95.25910767 56.32095947 95.25910767 56.32095947 96.98999023 56.32958984 C103.88465914 56.26873481 109.13237568 55.91174955 115 52 C113.59836068 55.01318597 111.92637935 57.53095903 109.9375 60.1875 C102.91574765 70.123942 96.83065693 81.11591965 94 93 C93.67 93.969375 93.34 94.93875 93 95.9375 C91.48586261 100.57454577 90.25767407 105.28791447 89 110 C88.34 110 87.68 110 87 110 C87.07700167 91.82760704 97.42055037 73.2980611 108 59 C106.76419189 59.03927612 106.76419189 59.03927612 105.50341797 59.0793457 C70.93995546 60.02862728 39.58254235 53.69761528 13 30 C12.13761719 29.26910156 11.27523437 28.53820312 10.38671875 27.78515625 C-3.36194957 15.91415128 -3.36194957 15.91415128 -6 8 C-4.22557591 5.00183515 -2.46459429 2.46459429 0 0 Z " transform="translate(103,223)" style="fill: #231E0A;"/><path d="M0 0 C0.66 0.33 1.32 0.66 2 1 C1.40574219 1.58523437 0.81148437 2.17046875 0.19921875 2.7734375 C-21.14650513 24.88269427 -31.41737491 54.98114323 -31.37060547 85.42285156 C-30.97361463 105.08557449 -25.45526299 125.36399298 -15.45214844 142.31958008 C-14.56709115 143.84234894 -13.77504638 145.41840128 -13 147 C-13.33 147.99 -13.66 148.98 -14 150 C-17.43217472 148.61299445 -18.67372574 147.37856766 -20.21875 144.03515625 C-20.59177246 143.24069092 -20.96479492 142.44622559 -21.34912109 141.62768555 C-21.72891113 140.78117432 -22.10870117 139.93466309 -22.5 139.0625 C-22.89654785 138.19729736 -23.2930957 137.33209473 -23.70166016 136.44067383 C-37.25264725 106.55735813 -39.16931022 73.39932233 -27.79296875 42.421875 C-21.4341174 26.19658254 -11.80567184 12.7385451 0 0 Z " transform="translate(109,76)" style="fill: #1E1B0C;"/><path d="M0 0 C6.07659364 0.2531914 11.13346044 2.32283874 16 6 C18.33651865 9.67377146 18.37901989 12.67917325 18 17 C16.58556611 20.80129107 14.71734083 22.37521688 11.25 24.25 C7.47158721 25.97507941 4.14021366 26.74651753 0 27 C-1.74545605 25.25454395 -1.1302316 22.83875783 -1.1328125 20.46875 C-1.13410156 19.34855469 -1.13539063 18.22835937 -1.13671875 17.07421875 C-1.13285156 15.89472656 -1.12898437 14.71523437 -1.125 13.5 C-1.12886719 12.32050781 -1.13273438 11.14101562 -1.13671875 9.92578125 C-1.13542969 8.80558594 -1.13414062 7.68539062 -1.1328125 6.53125 C-1.13168457 5.49548828 -1.13055664 4.45972656 -1.12939453 3.39257812 C-1 1 -1 1 0 0 Z " transform="translate(206,164)" style="fill: #F3F3F3;"/><path d="M0 0 C1 1 1 1 1.11352539 3.31665039 C1.10828857 4.31688232 1.10305176 5.31711426 1.09765625 6.34765625 C1.09443359 7.42724609 1.09121094 8.50683594 1.08789062 9.61914062 C1.07951172 10.75544922 1.07113281 11.89175781 1.0625 13.0625 C1.05798828 14.20267578 1.05347656 15.34285156 1.04882812 16.51757812 C1.03699747 19.34510351 1.0205141 22.1725264 1 25 C-6.42948404 25.2178278 -11.27992207 24.25506819 -17 19.25 C-18.5200804 15.8298191 -18.6229352 12.62895969 -18 9 C-14.85193068 2.97760652 -6.81732305 -1.06520673 0 0 Z " transform="translate(192,108)" style="fill: #F8F8F8;"/><path d="M0 0 C6.1286803 4.36079175 11.63082008 9.23611605 17.1328125 14.34375 C21.72456596 18.59769054 26.45209937 22.68182765 31.21484375 26.7421875 C32.41419012 27.76547544 33.61340501 28.78891751 34.8125 29.8125 C35.71947632 30.5861792 35.71947632 30.5861792 36.64477539 31.37548828 C41.34198463 35.39807492 45.9004997 39.54801308 50.4453125 43.7421875 C53.62254941 46.55020422 56.96664017 49.06728993 60.41796875 51.52734375 C61.20107422 52.25630859 61.20107422 52.25630859 62 53 C62 53.99 62 54.98 62 56 C61.01 56.33 60.02 56.66 59 57 C56.79296875 55.5859375 56.79296875 55.5859375 54.1875 53.375 C53.21167969 52.54742187 52.23585938 51.71984375 51.23046875 50.8671875 C47.13572137 47.27087624 43.16690124 43.53916007 39.19848633 39.8046875 C34.86285245 35.74251473 30.36017907 31.9654822 25.72265625 28.25 C21.6051064 24.84726153 17.7141098 21.21124354 13.796875 17.58203125 C8.68594153 12.86369742 3.48289717 8.28351342 -2 4 C-1.34 2.68 -0.68 1.36 0 0 Z " transform="translate(297,134)" style="fill: #15170C;"/><path d="M0 0 C0.16109319 17.69298938 -0.2886929 35.32326197 -1 53 C-1.99 53 -2.98 53 -4 53 C-3.88271584 45.61258753 -3.75787986 38.22533093 -3.62768555 30.83813477 C-3.58425994 28.32286504 -3.54259071 25.80756437 -3.50268555 23.29223633 C-3.44516707 19.68561456 -3.38142033 16.07914969 -3.31640625 12.47265625 C-3.29969376 11.34038101 -3.28298126 10.20810577 -3.26576233 9.04151917 C-3.24581711 8.00051559 -3.22587189 6.95951202 -3.20532227 5.88696289 C-3.18977798 4.96540909 -3.1742337 4.04385529 -3.15821838 3.09437561 C-2.94923348 0.32799105 -2.7914006 0 0 0 Z " transform="translate(152,310)" style="fill: #262208;"/><path d="M0 0 C0.66 0.33 1.32 0.66 2 1 C1.40574219 1.58523437 0.81148437 2.17046875 0.19921875 2.7734375 C-16.07826292 19.6331619 -26.48440101 41.85273929 -30 65 C-30.99 64.67 -31.98 64.34 -33 64 C-30.54557563 39.20473567 -16.54719509 17.85473912 0 0 Z " transform="translate(109,76)" style="fill: #423411;"/><path d="M0 0 C0 3.81494279 -1.08852018 4.66702541 -3.4375 7.625 C-10.8946937 17.61657804 -17.0988413 28.81992876 -20 41 C-20.495 42.4540625 -20.495 42.4540625 -21 43.9375 C-22.51413739 48.57454577 -23.74232593 53.28791447 -25 58 C-25.66 58 -26.32 58 -27 58 C-26.92029534 39.18969935 -15.83775027 21.4084628 -6 6 C-6.66 5.34 -7.32 4.68 -8 4 C-7.05125 3.71125 -6.1025 3.4225 -5.125 3.125 C-1.94788422 2.23174891 -1.94788422 2.23174891 0 0 Z " transform="translate(217,275)" style="fill: #342B10;"/><path d="M0 0 C-12.66001481 4.8863215 -25.39674724 5.18690861 -38.8125 5.25 C-40.05225586 5.25926514 -41.29201172 5.26853027 -42.56933594 5.27807617 C-49.61853002 5.25394806 -56.15837684 4.73686429 -63 3 C-59.89412458 1.15419239 -58.08184004 0.83388565 -54.52734375 1.359375 C-48.52891359 2.10135831 -42.60285709 2.2315431 -36.5625 2.25 C-35.43247559 2.25394775 -34.30245117 2.25789551 -33.13818359 2.26196289 C-25.1907432 2.2074822 -17.5846121 1.50718483 -9.78735352 -0.02050781 C-6.14425038 -0.73220298 -3.55216976 -1.07171632 0 0 Z " transform="translate(345,470)" style="fill: #332A0E;"/><path d="M0 0 C0.33 0 0.66 0 1 0 C1.33 3.96 1.66 7.92 2 12 C2.33 12 2.66 12 3 12 C3.20004525 18.46597882 2.6483606 24.11132168 1.0625 30.375 C0.84940186 31.22553955 0.63630371 32.0760791 0.41674805 32.95239258 C-2.08731706 42.26189498 -5.82693842 51.81828892 -11 60 C-11.99 60.495 -11.99 60.495 -13 61 C-11.9270669 57.61572344 -10.74329214 54.31453122 -9.37890625 51.0390625 C-2.36909576 34.13225904 -0.48051891 18.20131294 0 0 Z " transform="translate(433,196)" style="fill: #473E18;"/><path d="M0 0 C0.33 0 0.66 0 1 0 C0.67 12.21 0.34 24.42 0 37 C-0.66 37 -1.32 37 -2 37 C-5.7452557 25.76423289 -3.08706839 11.0987459 0 0 Z " transform="translate(77,137)" style="fill: #181303;"/><path d="M0 0 C0 0.66 0 1.32 0 2 C-0.99 2.495 -0.99 2.495 -2 3 C-2.11214844 3.61101562 -2.22429687 4.22203125 -2.33984375 4.8515625 C-3.27677876 7.90075929 -4.91949121 8.65603551 -7.5625 10.375 C-12.16403108 13.44048042 -16.60423093 16.64791912 -21 20 C-19.1796875 16.171875 -19.1796875 16.171875 -17.5625 14.625 C-15.79484901 12.9962898 -15.79484901 12.9962898 -14.9375 10.25 C-11.9233252 5.19396485 -6.11977707 0 0 0 Z " transform="translate(125,203)" style="fill: #EEDCBC;"/><path d="M0 0 C0 8.25 0 16.5 0 25 C-0.99 25 -1.98 25 -3 25 C-3.22147651 7.92170022 -3.22147651 7.92170022 -2 1 C-1 0 -1 0 0 0 Z " transform="translate(151,338)" style="fill: #1B1C0C;"/><path d="M0 0 C-1.3584202 3.04332765 -2.88463024 5.12309151 -5.2578125 7.453125 C-5.88300781 8.071875 -6.50820312 8.690625 -7.15234375 9.328125 C-7.80332031 9.96234375 -8.45429688 10.5965625 -9.125 11.25 C-9.78371094 11.8996875 -10.44242188 12.549375 -11.12109375 13.21875 C-12.74296643 14.81711727 -14.3693281 16.41061897 -16 18 C-16.61962891 16.15234375 -16.61962891 16.15234375 -17 14 C-15.0859375 11.5625 -15.0859375 11.5625 -12.375 9 C-11.49585938 8.154375 -10.61671875 7.30875 -9.7109375 6.4375 C-2.55128205 0 -2.55128205 0 0 0 Z " transform="translate(235,259)" style="fill: #C5BCA8;"/><path d="M0 0 C0.33 0 0.66 0 1 0 C1.33 3.96 1.66 7.92 2 12 C2.33 12 2.66 12 3 12 C3.19548629 18.15781799 3.12086994 24.1348782 1 30 C0.34 30.33 -0.32 30.66 -1 31 C-0.67 20.77 -0.34 10.54 0 0 Z " transform="translate(433,196)" style="fill: #332F14;"/><path d="M0 0 C0.66 0 1.32 0 2 0 C1.42978625 6.95660771 -0.01302694 13.31427305 -2 20 C-2.66 20 -3.32 20 -4 20 C-3.6143354 12.88515313 -2.60900601 6.64558134 0 0 Z " transform="translate(194,313)" style="fill: #382D0F;"/><path d="M0 0 C0.66 0 1.32 0 2 0 C3.59579497 8.57739795 3.62360795 17.43095805 2 26 C1.67 26 1.34 26 1 26 C0.67 17.42 0.34 8.84 0 0 Z " transform="translate(433,188)" style="fill: #050A03;"/><path d="M0 0 C1.32488413 3.97465238 0.19936974 6.8509628 -0.875 10.75 C-2.24954516 15.83107727 -3.35663997 20.77098867 -4 26 C-6.37517031 22.43724453 -6.35366046 21.20407647 -6 17 C-5.26187072 14.35253999 -4.48225389 11.82936491 -3.5625 9.25 C-3.33240234 8.57839844 -3.10230469 7.90679687 -2.86523438 7.21484375 C-2.01240782 4.74782665 -1.16862988 2.33725976 0 0 Z " transform="translate(61,276)" style="fill: #453D19;"/><path d="M0 0 C0.99 0.33 1.98 0.66 3 1 C-0.38872633 4.58806317 -3.76141332 7.45684799 -8 10 C-8.66 10 -9.32 10 -10 10 C-8.58768539 6.64117925 -6.96631022 4.86670953 -4.0625 2.6875 C-3.37285156 2.15511719 -2.68320312 1.62273437 -1.97265625 1.07421875 C-1.32167969 0.71972656 -0.67070312 0.36523438 0 0 Z " transform="translate(399,281)" style="fill: #AA9F85;"/><path d="M0 0 C-1.37911177 3.25526382 -2.81528489 4.90042799 -5.6875 6.9375 C-6.39261719 7.44410156 -7.09773438 7.95070312 -7.82421875 8.47265625 C-8.54222656 8.97667969 -9.26023437 9.48070312 -10 10 C-11.33344448 10.95817868 -12.66678732 11.91649883 -14 12.875 C-14.99 13.57625 -15.98 14.2775 -17 15 C-15.51811601 11.43869816 -13.52954306 9.4415828 -10.625 6.9375 C-9.85414062 6.26589844 -9.08328125 5.59429687 -8.2890625 4.90234375 C-2.39014374 0 -2.39014374 0 0 0 Z " transform="translate(121,208)" style="fill: #3F4135;"/><path d="M0 0 C5.65020618 0.60108576 10.66164461 2.07528683 16 4 C16 4.33 16 4.66 16 5 C9.80112515 5.37952295 5.5522888 4.8352113 0 2 C0 1.34 0 0.68 0 0 Z " transform="translate(270,467)" style="fill: #151204;"/><path d="M0 0 C1.2684375 0.11408203 1.2684375 0.11408203 2.5625 0.23046875 C5.32539703 0.89019897 6.86264777 1.97694982 9 3.8125 C2.71739294 4.04518915 -2.88019467 3.21704548 -9 1.8125 C-5.79515577 -0.10892281 -3.69760815 -0.38892525 0 0 Z " transform="translate(291,471.1875)" style="fill: #3C2E07;"/><path d="M0 0 C0.33 0.66 0.66 1.32 1 2 C-0.07518118 4.44332726 -1.19808566 6.76754523 -2.4375 9.125 C-2.77587891 9.78371094 -3.11425781 10.44242188 -3.46289062 11.12109375 C-4.30149926 12.75106547 -5.14984811 14.37601909 -6 16 C-6.6796875 14.35546875 -6.6796875 14.35546875 -7 12 C-5.8203125 9.23828125 -5.8203125 9.23828125 -4.125 6.3125 C-3.57070312 5.33925781 -3.01640625 4.36601563 -2.4453125 3.36328125 C-1 1 -1 1 0 0 Z " transform="translate(91,100)" style="fill: #292107;"/><path d="M0 0 C3 3 3 3 3 7 C3.99 6.67 4.98 6.34 6 6 C6 8 6 8 4.125 10.125 C2 12 2 12 0 12 C0 8.04 0 4.08 0 0 Z " transform="translate(145,428)" style="fill: #2F2909;"/><path d="M0 0 C-1.25460729 3.76382187 -2.52618612 4.25041838 -5.875 6.25 C-6.75929688 6.79140625 -7.64359375 7.3328125 -8.5546875 7.890625 C-11 9 -11 9 -14 8 C-12.04532248 6.66101601 -10.0866421 5.32870953 -8.125 4 C-7.03445313 3.2575 -5.94390625 2.515 -4.8203125 1.75 C-2 0 -2 0 0 0 Z " transform="translate(391,458)" style="fill: #A7790D;"/><path d="M0 0 C0.33 0 0.66 0 1 0 C2.01603857 5.79141983 1.96263236 9.4584498 0 15 C-0.66 15 -1.32 15 -2 15 C-1.38487182 9.99109914 -0.7282448 4.99367864 0 0 Z " transform="translate(431,222)" style="fill: #3D361A;"/><path d="M0 0 C0.99 0 1.98 0 3 0 C2.34 3.63 1.68 7.26 1 11 C0.01 10.67 -0.98 10.34 -2 10 C-1.125 2.25 -1.125 2.25 0 0 Z " transform="translate(78,130)" style="fill: #3A2E0C;"/><path d="M0 0 C0.99 0.33 1.98 0.66 3 1 C0.03 3.64 -2.94 6.28 -6 9 C-6.66 8.34 -7.32 7.68 -8 7 C-6.74057614 5.80040625 -5.46704714 4.61560557 -4.1875 3.4375 C-3.47980469 2.77621094 -2.77210937 2.11492187 -2.04296875 1.43359375 C-1.36878906 0.96050781 -0.69460937 0.48742187 0 0 Z " transform="translate(103,70)" style="fill: #6E520A;"/><path d="M0 0 C0 3.60573896 -0.81707462 4.41336566 -3 7.1875 C-3.556875 7.90292969 -4.11375 8.61835938 -4.6875 9.35546875 C-5.120625 9.89816406 -5.55375 10.44085938 -6 11 C-7 8 -7 8 -6 6 C-6.66 5.34 -7.32 4.68 -8 4 C-6.576875 3.566875 -6.576875 3.566875 -5.125 3.125 C-1.94788422 2.23174891 -1.94788422 2.23174891 0 0 Z " transform="translate(217,275)" style="fill: #473D1E;"/><path d="M0 0 C0.66 0.66 1.32 1.32 2 2 C1.34 3.65 0.68 5.3 0 7 C-0.99 7 -1.98 7 -3 7 C-3 3.48283697 -2.17554415 2.62878252 0 0 Z " transform="translate(404,275)" style="fill: #D5C5A6;"/><path d="M0 0 C-0.33 3.3 -0.66 6.6 -1 10 C-1.66 10 -2.32 10 -3 10 C-2.85950482 8.52031676 -2.71245174 7.04125484 -2.5625 5.5625 C-2.48128906 4.73878906 -2.40007812 3.91507812 -2.31640625 3.06640625 C-1.84688091 0 -1.84688091 0 0 0 Z " transform="translate(193,323)" style="fill: #171407;"/><path d="M0 0 C-1.13499394 3.29148243 -1.99283376 3.9959869 -5.125 5.75 C-6.548125 6.36875 -6.548125 6.36875 -8 7 C-6.47663111 3.31852519 -4.31953005 0 0 0 Z " transform="translate(121,208)" style="fill: #212720;"/><path d="M0 0 C0.99 0.33 1.98 0.66 3 1 C0.69 2.65 -1.62 4.3 -4 6 C-4.66 5.34 -5.32 4.68 -6 4 C-3.1875 1.9375 -3.1875 1.9375 0 0 Z " transform="translate(110,65)" style="fill: #DA9A14;"/></svg>